<svg id="Capa_1" enable-background="new 0 0 512 512" height="512" viewBox="0 0 512 512" width="512" xmlns="http://www.w3.org/2000/svg"><g><path d="m512 65.86h-391.904v60.048h-60.048v60.048h-60.048v260.184h391.904v-60.048h60.048v-60.048h60.048zm-150.096 180.122c-16.362-.445-29.581-13.665-30.026-30.026h30.026zm-60.026-30.026c.454 32.903 27.123 59.572 60.026 60.026v80.131c-32.903.454-59.572 27.124-60.026 60.027h-211.852c-.454-32.903-27.123-59.572-60.026-60.027v-80.131c32.903-.454 59.572-27.123 60.026-60.026zm-241.852 0c-.445 16.362-13.664 29.581-30.026 30.026v-30.026zm-30.026 170.157c16.362.445 29.581 13.665 30.026 30.027h-30.026zm301.878 30.027c.445-16.362 13.665-29.582 30.026-30.027v30.027zm90.074-60.048h-30.048v-170.136h-301.856v-30.048h331.904zm60.048-60.048h-30.048v-170.136h-301.856v-30.048h331.904z"/><path d="m195.952 386.14c38.649 0 70.092-31.443 70.092-70.092s-31.443-70.092-70.092-70.092-70.092 31.443-70.092 70.092 31.443 70.092 70.092 70.092zm0-110.184c22.107 0 40.092 17.985 40.092 40.092s-17.985 40.092-40.092 40.092-40.092-17.985-40.092-40.092 17.985-40.092 40.092-40.092z"/><path d="m65.836 301.048h30.024v30h-30.024z"/><path d="m296.044 301.048h30.024v30h-30.024z"/></g></svg>